<?xml version="1.0" encoding="UTF-8"?>
<!-- Created with Grafika (https://www.grafika.cc/) -->
<svg xmlns="http://www.w3.org/2000/svg" xmlns:svg="http://www.w3.org/2000/svg" xmlns:xlink="http://www.w3.org/1999/xlink" width="1318" height="1318" viewBox="0 0 1318 1318" preserveAspectRatio="xMidYMid meet">
	<g id="Group2">
		<ellipse cx="659" cy="659" rx="659" ry="659" style="fill:#E0AAFF;" />
		<path d="M573.12,1190.3 C555.61,1201.41 534.25,1204.68 514.23,1199.31 C494.2,1193.94 477.34,1180.44 467.73,1162.06 L442.39,1113.6 C429.09,1088.17 402.29,1072.7 373.61,1073.89 L318.97,1076.18 C298.26,1077.04 278.13,1069.19 263.47,1054.53 C248.81,1039.87 240.96,1019.74 241.83,999.03 L244.11,944.39 C245.31,915.71 229.84,888.92 204.4,875.62 L155.94,850.27 C137.57,840.67 124.06,823.8 118.69,803.78 C113.33,783.75 116.6,762.39 127.7,744.89 L157,698.71 C172.38,674.47 172.38,643.53 157,619.3 L127.7,573.12 C116.6,555.61 113.33,534.25 118.69,514.23 C124.06,494.2 137.57,477.34 155.94,467.73 L204.4,442.39 C229.84,429.09 245.31,402.29 244.11,373.61 L241.83,318.97 C240.96,298.26 248.81,278.13 263.47,263.47 C278.13,248.81 298.26,240.96 318.97,241.83 L373.61,244.11 C402.29,245.31 429.09,229.84 442.39,204.4 L467.73,155.94 C477.34,137.57 494.2,124.06 514.23,118.69 C534.25,113.33 555.61,116.6 573.12,127.7 L619.3,157 C643.53,172.38 674.47,172.38 698.71,157 L744.89,127.7 C762.39,116.6 783.75,113.33 803.78,118.69 C823.8,124.06 840.67,137.57 850.27,155.94 L875.62,204.4 C888.92,229.84 915.71,245.31 944.39,244.11 L999.03,241.83 C1019.74,240.96 1039.87,248.81 1054.53,263.47 C1069.19,278.13 1077.04,298.26 1076.18,318.97 L1073.89,373.61 C1072.7,402.29 1088.17,429.09 1113.6,442.39 L1162.06,467.73 C1180.44,477.34 1193.94,494.2 1199.31,514.23 C1204.68,534.25 1201.41,555.61 1190.3,573.12 L1161,619.3 C1145.63,643.53 1145.63,674.47 1161,698.71 L1190.3,744.89 C1201.41,762.39 1204.68,783.75 1199.31,803.78 C1193.94,823.8 1180.44,840.67 1162.06,850.27 L1113.6,875.62 C1088.17,888.92 1072.7,915.71 1073.89,944.39 L1076.18,999.03 C1077.04,1019.74 1069.19,1039.87 1054.53,1054.53 C1039.87,1069.19 1019.74,1077.04 999.03,1076.18 L944.39,1073.89 C915.71,1072.7 888.92,1088.17 875.62,1113.6 L850.27,1162.06 C840.67,1180.44 823.8,1193.94 803.78,1199.31 C783.75,1204.68 762.39,1201.41 744.89,1190.3 L698.71,1161 C674.47,1145.63 643.53,1145.63 619.3,1161 L573.12,1190.3 Z" fill-rule="evenodd" style="fill:#9D4EDD;" />
		<g transform="matrix(5.467376232147217, 0, 0, 5.467376232147217, 659.0018920898438, 659.001953125)">
			<path d="M14.38,16.85 L-1.17,32.6 L-12.11,32.6 L-22.9,21.64 L-33.57,32.6 L-44.6,32.6 L-60.15,16.85 L-60.15,-39.42 L-47.31,-39.42 L-47.31,12.85 L-39.18,21.27 L-37.69,21.27 L-29.34,12.82 L-29.34,-39.42 L-16.52,-39.42 L-16.52,12.82 L-8.17,21.27 L-6.59,21.27 L1.54,13.12 L1.54,-39.42 L14.38,-39.42 L14.38,16.85 ZM65.19,32.6 L36.01,32.6 L26.54,23.05 L26.54,-12.66 L36.01,-22.23 L55.72,-22.23 L65.19,-12.66 L65.19,5.84 L55.72,15.29 L35.52,15.29 L47.32,3.77 L52.44,3.77 L52.44,-10.59 L39.38,-10.59 L39.38,20.98 L65.19,20.98 L65.19,32.6 Z" fill="#FFFFFF" />
		</g>
	</g>
</svg>
